<?xml version="1.0" encoding="UTF-8"?>
<svg id="Layer_1" data-name="Layer 1" xmlns="http://www.w3.org/2000/svg" version="1.1" viewBox="0 0 751.1 556.4">
  <defs>
    <style>
      .cls-1 {
        fill: #00bf2e;
      }

      .cls-1, .cls-2, .cls-3, .cls-4, .cls-5, .cls-6, .cls-7, .cls-8, .cls-9, .cls-10 {
        stroke-width: 0px;
      }

      .cls-2 {
        fill: #cacaca;
      }

      .cls-3 {
        fill: #288e3e;
      }

      .cls-4 {
        fill: #ffb6b6;
      }

      .cls-5 {
        fill: #3f3d56;
      }

      .cls-6 {
        fill: #f2f2f2;
      }

      .cls-7 {
        fill: #2f2e41;
      }

      .cls-8 {
        fill: #88f29e;
      }

      .cls-9 {
        fill: #fff;
      }

      .cls-10 {
        fill: #e6e6e6;
      }
    </style>
  </defs>
  <path class="cls-10" d="M680.2,553.8h-159.3v-4.9c0-8.8,7.2-16,16-16h127.3c8.8,0,16,7.2,16,16v4.9h0Z"/>
  <path class="cls-10" d="M596.8,533.9l4.8-2c-50.7-125.8-45.8-284.5-3-420.6,10.4-32.2.7-67.6-24.8-89.9-24.9-22.2-59.1-27.6-89.5-14.1-29.9,13.3-34.1,36.5-34.1,59.6h5.2c0-24.6,5.3-43.4,31-54.8,28.4-12.6,60.6-7.6,83.9,13.2,23.9,21,33,54.2,23.3,84.5-43.3,137.7-47.9,297.5,3.1,424.1Z"/>
  <circle class="cls-10" cx="454.3" cy="125.6" r="18.3"/>
  <path class="cls-10" d="M426.2,157.5v-34.6h5.4v34.6c3.7,1.5,5.5,5.7,4,9.3-1.5,3.7-5.7,5.5-9.3,4-3.7-1.5-5.5-5.7-4-9.3.7-1.8,2.2-3.2,4-4Z"/>
  <path class="cls-1" d="M400.1,96.3c0-16.6,13.5-30,30-30h49.6c16.6,0,30,13.4,30,30s-13.4,30-30,30h-49.6c-16.6,0-30-13.5-30-30Z"/>
  <path class="cls-5" d="M330.2,282.2c5-63.7,30.4-94.1,14.1-113.1-15.6-18.2-59.6-14.5-87.9,3-76.2,47.2-104.1,235.3-6.1,327.2,93.2,87.3,269.8,59.4,309.1-12.1,9.2-16.7,16.4-45.9,3-63.6-33.3-44-154.3,35.7-208.1-14.1-31.9-29.5-27-92.3-24.2-127.3Z"/>
  <path class="cls-4" d="M388.5,250.6c-3.8,1.8-5.6,6.3-3.9,10.2.2.4.4.7.6,1.1l-16.4,21.8,8.2,12.2,19.2-32.3c2.8-2.2,3.8-6,2.4-9.2-1.7-3.8-6.1-5.5-9.8-3.8,0,0,0,0,0,0,0,0-.1,0-.2,0Z"/>
  <path class="cls-8" d="M388.5,288.2c1.1.9-1.9,2.1-5,.3-.9-.5-1.3-.8-1.4-.6-.3.4,1.2,3,.8,8.7-.2,3.5-6,9.9-12.5,16.3-8.8,8.6-19,16.8-19,16.8l-3.6-2.9-37.7-30.2-6.4-8.8c.6-3.5,1.5-6.9,2.6-10.2,1.6-4.6,3.5-9.1,5.7-13.5,1.2-2.4,2.4-4.6,3.5-6.7l20.2,22.3,16.9,18.6s4.9-7.9,8.7-10.1c.5-.3,1-.5,1.6-.6,3.9-.2,4.1-2.3-.4-6.9-4.5-4.6,1.2-.3,5.2-1.5,4-1.2,0,0,.8-3.1.8-3.1,12-9.3,12-9.3l.5.4,8.4,7.4,2.4,2.1s-2.6,7.2-3.4,8.8c-.7,1.5-1.1,1.6,0,2.6Z"/>
  <polygon class="cls-4" points="610.8 428.5 611.2 417.4 568.4 410.5 567.8 426.9 610.8 428.5"/>
  <path class="cls-7" d="M603,431.9l-.4-17.8,7.6.3,12.3-16.5c1.6-2.1,4.6-2.5,6.7-1,1.3.9,2,2.4,1.9,4l-.8,21.2-7.7,3.4,7.5,1.7-.3,8-26.9-3.2Z"/>
  <path class="cls-7" d="M370.1,432.9l135.5,3.4s58.5,3.4,72.2-5.6l14.5-1.8.8-21.3s-8.9,0-13.9-2.3-1.6-5.3-6.4-2.4-4.3,3.2-8.1,1.9-175.8-27.5-175.8-27.5l-18.8,55.6Z"/>
  <polygon class="cls-4" points="548.6 423.6 556.5 415.7 529.8 381.6 518.2 393.2 548.6 423.6"/>
  <path class="cls-7" d="M540.6,416.8l11.8-13.4,5.4,5.4,20.2-3.7c2.6-.5,5.1,1.2,5.5,3.8.3,1.5-.2,3.1-1.3,4.2l-15,15-7.9-2.7,4.3,6.3-5.6,5.7-17.5-20.6Z"/>
  <path class="cls-7" d="M316.6,358.7l1.3,31.3c1.6,36.9,42.2,59.2,73.7,39.9.6-.4,1.2-.7,1.7-1.1.9-.6,11.9-3.2,11.6-8.3s2.6-7.5,5.1-6.2,36.4-46.6,36.4-46.6c0,0,70.2,35,85.7,43.2,0,0,14.6-22.8,13.5-22.5s-86.8-59.8-86.8-59.8c0,0-14-14.1-31.3-4.8-.4,1.4,0,1.4,0,1.4l-57.3,46.7-8.1-15.4-45.5,2Z"/>
  <path class="cls-3" d="M370.6,319.5c-.1,1.4-.3,2.9-.6,4.3-.4,2.1-1.1,4-2,5.9,0,0,0,2.1-4,9.2-4,7.1,1,4,4,9.3,3,5.2,0,2.8-3.4,6.2-2,2-2.7,4.9-1.9,7.6,0,0-43.4,0-51.5-3s-9.9-20.1-2.7-21.8c7.2-1.7-2.2-3.4-6.4-7.3-4.3-3.9,4.3-10.3,4.3-10.3,0,0-3.5-6-3.2-26.4,0-1.9.2-3.7.5-5.6.6-3.5,1.5-6.9,2.6-10.2,1.6-4.6,3.5-9.1,5.7-13.5,1.2-2.4,2.4-4.6,3.5-6.7.2-.3.4-.6.5-.9,2.2-3.9,4.2-7,5.5-9.1,1-1.6,1.6-2.5,1.6-2.5l7.4-12.8,24.5,11.5-1.4,18.8,4.2,14.2,1.9,6.5,1.5,5,2.3,7.8s-.6,0,.1,1.1c3.5,4.6,5.8,10.1,6.6,15.8.3,2.2.4,4.4.2,6.6Z"/>
  <path class="cls-7" d="M441.5,321.5h-.5c0-.1-58.7-19.1-58.7-19.1l21.6-71c1.6-5.2,7-8.1,12.2-6.5.7.2,1.5.5,2.1.9l37.5,22.2c6.1,3.6,8.8,11.1,6.3,17.8l-20.6,55.7Z"/>
  <path class="cls-6" d="M441.7,326.1l-59.2-19.1,21.6-71c1.6-5.2,7-8.1,12.2-6.5.7.2,1.5.5,2.1.9l39.3,19.6c5.9,3.5,5.8,12.5,3,19.9l-19.1,56.1Z"/>
  <path class="cls-5" d="M435.8,331.2c-2.8,1.6-6,1.9-9,.9l-37.8-12.2c-6-2-9.4-8.4-7.6-14.5l19-62.3c1.6-5.2,7-8.1,12.2-6.5,0,0,.1,0,.2,0l39.2,12.9c7.7,2.5,11.9,10.9,9.4,18.6,0,.1,0,.3-.1.4l-20.3,56.6c-.9,2.6-2.7,4.7-5.1,6.1Z"/>
  <circle class="cls-4" cx="353.7" cy="205.2" r="27.1"/>
  <path class="cls-7" d="M262,232.7c2.5,4.8,6.6,8.6,11.5,10.8,2,.9,4.1,1.6,6.2,2,.6-2.4,1.6-4.7,2.9-6.8-.4,2.4-.4,4.8,0,7.2,3.3.3,6.6-.1,9.7-1.2,6.2-2.1,11-7,13-13.2,2.2-7.2-.2-14.9-.3-22.4-.2-7.5,3.4-16.5,10.8-17.4,5.7-.7,5-.2,9,3.8-5.7,6.3,8.2,34.4,15.7,33.1,4.2-.7,7.3-4,8.2-3.9,4.3,10.5-8.6,25.3,1.6,30.2l-.8-1c-5.3-8.8,10.4-23.7,5.1-32.5-1.5-2.5-3-5.4-2.1-8.1.9-2.6,5.3-3.4,6.2-1.1-1.5-5.4,2.7-11.8,8.3-12.3,5-.5,4.7.9,9.5,2.2.6-2.1,1.5-4,2.6-5.8-.4,2.1-.4,4.2-.1,6.3,1.7.2,3.5-.2,4.9-1,4.4-2.6,4.5-9.4,1.5-13.6-3-4.1-8.1-6.2-13-7.7,0-10.3-27.9-15.3-33-5.7-.5-7.8-9.5-13-17.1-11.7s-13.8,7.5-17.4,14.4c-3.7,6.9-5.5,14.6-8.2,21.9s-6.6,14.6-13.1,18.9c-6.5,4.3-16.1,4.7-21.5-.9-2.5,4.9-2.5,10.6,0,15.5Z"/>
  <path class="cls-5" d="M289.8,356.7c.6-.4,1.2-.8,1.8-1.1,10.4-5.2,42.6-18.6,67.9-18,48.5,1.1,110.3,54.6,96,90.6-10.9,27.4-65.3,43-105,30.5-55.6-17.5-77.6-88.4-60.6-101.9Z"/>
  <path class="cls-10" d="M88.3,553.9c-15.9-3-29.9-74.5,1.3-109.7,10.7-12.1,24-17.3,41.8-22.2,102.1-28.1,180-1.3,190.5,5.2,10.4,6.5,28.8,104.9,5.3,118.8-13.2,7.8-39.3,11.7-52.2,2.6-19-13.4,12.9-48.3-1.3-71.8-16.1-26.6-101.1-35.6-143.7-9.1-45.5,28.2,48.3,103.1-41.7,86.2Z"/>
  <path class="cls-1" d="M194.4,432.4h-60.6c-15-14.3-25.7-28.2-17.1-39.6,0-6.9,5.6-12.4,12.4-12.4h69.9c6.9,0,12.4,5.6,12.4,12.4,3.3,13.1-2.6,26.3-17.1,39.6Z"/>
  <path class="cls-3" d="M183.5,364.7c-1.5,0-2.9-1.1-2.9-2.7,0-.8.3-1.6.9-2.2l.2-.8c0,0,0-.1,0-.2-1.6-3.8-6-5.6-9.9-4-1.8.8-3.3,2.2-4,4.1-2.3,5.5-5.2,11-5.9,16.8-.3,2.6-.2,5.2.4,7.7-5.3-11.7-8.1-24.3-8.1-37.1,0-3.2.2-6.4.5-9.6.3-2.6.7-5.2,1.2-7.8,2.9-14,9-27.2,17.9-38.3,4.3-2.4,7.8-6,10-10.4.8-1.6,1.4-3.3,1.7-5-.5,0-1.8-7.4-1.5-7.8-.7-1-1.9-1.5-2.6-2.5-3.7-5-8.8-4.1-11.4,2.7-5.7,2.9-5.7,7.6-2.2,12.2,2.2,2.9,2.5,6.8,4.5,9.9-.2.3-.4.5-.6.8-3.7,4.7-6.8,9.7-9.5,15.1.6-6-.1-12-2.3-17.6-2.2-5.2-6.2-9.6-9.8-14.1-4.3-5.4-13.1-3.1-13.8,3.8,0,0,0,.1,0,.2.5.3,1,.6,1.6,1,1.7,1.2,2.2,3.5,1.1,5.3-.6.9-1.5,1.5-2.6,1.6h0c.2,1.9.5,3.8,1,5.7-4.6,17.7,5.3,24.2,19.4,24.5.3.2.6.3.9.5-2.7,7.6-4.4,15.5-5,23.5-.4,4.7-.3,9.5,0,14.2v-.2c-1-5.3-3.9-10-8-13.4-6.1-5-14.8-6.9-21.4-10.9-2-1.3-4.7-.7-6,1.3-.6.9-.8,1.9-.7,2.9,0,0,0,.1,0,.2,1,.4,1.9.9,2.9,1.4.5.3,1,.6,1.6,1,1.7,1.2,2.2,3.5,1.1,5.3-.6.9-1.5,1.5-2.6,1.6h0c0,0-.1,0-.2,0,1.7,4,4,7.7,7,10.9,2.9,15.5,15.2,16.9,28.3,12.4h0c1.4,6.3,3.5,12.4,6.2,18.2h22.3c0-.2.2-.5.2-.8-2.1.1-4.1,0-6.2-.4,1.7-2,3.3-4.1,5-6.1,0,0,0,0,.1-.1.8-1,1.7-2.1,2.5-3.1h0c0-3.2-.3-6.4-1.1-9.5h0Z"/>
  <path class="cls-8" d="M259.5,429.2c.8,2.2,2.9,3.7,5.2,3.6l22.2-.6c2.4,0,4.4-1.6,5-3.9l3.1-33.6c1.1.5,2.3.8,3.6.7,4.5-.1,8-3.8,7.9-8.3s-3.8-8-8.3-7.9c-.5,0-1,0-1.5.2-1.1-1.1-2.5-1.8-4.1-1.8l-34.2.9c-.3,0-.6,0-.8.1-2.9.5-4.8,3.3-4.3,6.2,0,.2.1.5.2.7l5.9,43.7ZM295.7,392.4l2.2-8c.3-.9.3-1.9,0-2.8.1,0,.2,0,.3,0,3.2,0,5.8,2.5,5.9,5.7,0,3.2-2.5,5.8-5.6,5.9-1,0-2-.2-2.8-.7h0Z"/>
  <path class="cls-9" d="M257.7,378.6c.7,4.2,8.9,7.1,18.8,6.6,9.1-.4,16.5-3.6,17.8-7.4-.5-.1-1-.2-1.5-.2l-34.2.9c-.3,0-.6,0-.8.1Z"/>
  <path class="cls-2" d="M1.2,555.5l748.8.3c.7,0,1.2-.5,1.2-1.2,0-.7-.5-1.2-1.2-1.2l-748.8-.3c-.7,0-1.2.5-1.2,1.2,0,.7.5,1.2,1.2,1.2h0Z"/>
  <path class="cls-4" d="M421.1,289.4c-4.2.2-7.6,3.7-7.5,7.9,0,.4,0,.8.1,1.2l-23.5,13.9,2.8,14.4,30.1-22.5c3.4-.9,5.8-4.1,5.7-7.6,0-4.1-3.5-7.4-7.6-7.3h0c0,0-.1,0-.2,0Z"/>
  <path class="cls-8" d="M401.9,322.5c-.6-.8-.9-1.2-1-1.1-.4.2,0,3.2-2.6,8.4-3.6,7.3-41.8,18.4-41.8,18.4l-4.7-8.6-20.7-37.8-7.1-30.3c-.2-1.1-.4-2.1-.4-3.2,6.4-4.5,13.1-8.4,20.2-11.6,2.8,1.6,5,4.2,6.1,7.2l14.2,39.9,5.7,15.9s10-7.2,13.7-5.9c3.6,1.3,4.7-.5,2.3-6.5-2.4-5.9,1.2.2,5.3.6,4.2.4,0,0,2-2.5s14.6-3.9,14.6-3.9l.3.6,4.9,10.1,1.4,2.9s-5.2,5.7-6.5,6.8c-1.3,1.1-1.7,1.1-1,2.3.6,1.3-2.6,1.2-4.8-1.7Z"/>
</svg>